<svg width="20" height="15" viewBox="0 0 20 15" fill="none" xmlns="http://www.w3.org/2000/svg">
<path d="M3.61128e-05 7.32061C1.61685e-05 7.87291 0.447737 8.32065 1.00004 8.32065H2.48156C3.03383 8.32065 3.48154 7.87295 3.48156 7.32068L3.48158 6.79386C3.4816 6.24156 3.03388 5.79382 2.48158 5.79382H1.00006C0.447785 5.79382 7.50805e-05 6.24152 5.51371e-05 6.79379L3.61128e-05 7.32061ZM9.12473e-05 13.14C9.12473e-05 13.6923 0.447807 14.14 1.00009 14.14H2.48161C3.0339 14.14 3.48162 13.6923 3.48162 13.14L3.48161 12.4856C3.48161 11.9333 3.0339 11.4856 2.48161 11.4856H1.00009C0.447807 11.4856 9.12473e-05 11.9333 9.12473e-05 12.4856V13.14ZM9.12473e-05 1.42474C9.12473e-05 1.97702 0.447806 2.42474 1.00009 2.42474H2.48161C3.0339 2.42474 3.48161 1.97702 3.48161 1.42474L3.48162 1C3.48162 0.447716 3.0339 3.89457e-07 2.48162 3.89457e-07H1.00009C0.447807 3.89457e-07 9.12473e-05 0.447716 9.12473e-05 1V1.42474ZM5.22121 7.32061C5.22119 7.87291 5.66892 8.32065 6.22121 8.32065H18.9999C19.5522 8.32065 19.9999 7.87295 19.9999 7.32068L20 6.79386C20 6.24156 19.5523 5.79382 19 5.79382H6.22123C5.66896 5.79382 5.22125 6.24152 5.22123 6.79379L5.22121 7.32061ZM5.22127 13.14C5.22127 13.6923 5.66898 14.14 6.22127 14.14H19C19.5523 14.14 20 13.6923 20 13.14L20 12.4856C20 11.9333 19.5523 11.4856 19 11.4856H6.22127C5.66899 11.4856 5.22127 11.9333 5.22127 12.4856L5.22127 13.14ZM6.22127 3.89457e-07C5.66899 3.89457e-07 5.22127 0.447716 5.22127 1L5.22127 1.42474C5.22127 1.97702 5.66898 2.42474 6.22127 2.42474H19C19.5523 2.42474 20 1.97702 20 1.42474L20 1C20 0.447717 19.5523 3.89457e-07 19 3.89457e-07H6.22127Z" fill="#827D88"/>
</svg>
