<svg width="20" height="20" viewBox="0 0 20 20" fill="none" xmlns="http://www.w3.org/2000/svg">
<path d="M18.6851 1.29181C17.8316 0.461361 16.7013 0 15.5248 0H4.45213C3.25259 0 2.14533 0.461361 1.29181 1.31488C0.438293 2.1684 0 3.27566 0 4.45213V15.5248C0 16.7243 0.461361 17.8316 1.31488 18.6851C2.1684 19.5386 3.27566 20 4.4752 20H15.5248C16.7243 20 17.8316 19.5386 18.6851 18.6851C19.5386 17.8316 20 16.7243 20 15.5248V4.45213C19.9769 3.27566 19.5156 2.14533 18.6851 1.29181ZM13.6563 10.5652L7.8662 13.91C7.77393 13.9792 7.65859 14.0023 7.54325 14.0023C7.42791 14.0023 7.31257 13.9792 7.2203 13.91C7.01269 13.7947 6.89735 13.564 6.89735 13.3333V6.6436C6.89735 6.41292 7.01269 6.18224 7.2203 6.0669C7.42791 5.95156 7.68166 5.95156 7.88927 6.0669L13.6794 9.41176C13.887 9.5271 14.0023 9.75778 14.0023 9.98847C14.0023 10.2191 13.8639 10.4498 13.6563 10.5652Z" fill="#827D88"/>
</svg>
